<?xml version="1.0" encoding="UTF-8"?>
<svg xmlns="http://www.w3.org/2000/svg" xmlns:xlink="http://www.w3.org/1999/xlink" width="24px" height="800px" viewBox="0 0 24 24" version="1.1">
<g id="surface1">
<path style=" stroke:none;fill-rule:nonzero;fill:rgb(0%,0%,0%);fill-opacity:1;" d="M 10.929688 2.046875 C 10.382812 2.410156 7.710938 4.183594 4.992188 5.988281 C 2.273438 7.792969 0.0507812 9.285156 0.0507812 9.304688 C 0.0507812 9.324219 0.1875 9.414062 0.355469 9.503906 C 0.523438 9.601562 3.203125 11.085938 6.320312 12.8125 L 11.976562 15.957031 L 12.121094 15.882812 C 12.203125 15.84375 14.289062 14.652344 16.761719 13.242188 L 21.253906 10.671875 L 21.28125 18.621094 L 23.949219 18.621094 L 23.949219 9.320312 L 20.488281 7 C 15.824219 3.875 12.097656 1.414062 12.007812 1.394531 C 11.960938 1.386719 11.480469 1.679688 10.929688 2.046875 Z M 5.355469 16.632812 L 5.367188 18.636719 L 11.988281 22.605469 L 18.65625 18.601562 L 18.65625 16.621094 C 18.65625 15.527344 18.644531 14.636719 18.632812 14.636719 C 18.617188 14.636719 17.3125 15.417969 15.730469 16.378906 L 12.425781 18.375 L 11.992188 18.628906 L 10.675781 17.839844 C 9.578125 17.183594 8.480469 16.523438 7.386719 15.859375 L 5.382812 14.648438 C 5.359375 14.640625 5.351562 15.53125 5.355469 16.632812 Z M 5.355469 16.632812 "/>
</g>
</svg>
