<svg version="1.0" xmlns="http://www.w3.org/2000/svg" width="32" height="32" viewBox="0 0 1024 1536" preserveAspectRatio="xMidYMid meet">
  <g transform="translate(0,1536) scale(0.1,-0.1)" fill="#ffffff" stroke="none">
    <path d="M4790 13210 c-243 -15 -530 -52 -750 -96 -862 -175 -1667 -563 -2355 
-1138 -165 -137 -507 -482 -646 -650 -506 -613 -868 -1353 -1014 -2075 l-25
-124 0 -1044 0 -1044 45 -185 c214 -873 645 -1643 1284 -2297 349 -356 645
-593 1061 -849 699 -429 1540 -691 2404 -749 220 -14 703 -6 896 15 621 70
1177 229 1726 495 847 411 1534 997 2058 1755 337 487 571 1003 721 1591 l45
177 0 1124 0 1124 -34 138 c-104 421 -315 923 -554 1322 -486 810 -1227 1496
-2094 1940 -651 333 -1276 509 -1993 559 -210 15 -611 21 -775 11z m865 -394
c676 -72 1255 -249 1847 -567 411 -220 738 -460 1079 -794 398 -389 709 -823
955 -1330 331 -682 472 -1364 450 -2180 -13 -496 -83 -909 -230 -1350 -230
-689 -615 -1304 -1151 -1840 -600 -600 -1347 -1036 -2154 -1255 -707 -192
-1462 -227 -2194 -100 -524 90 -1095 291 -1535 541 -681 387 -1270 931 -1686
1557 -338 511 -568 1055 -687 1629 -116 562 -119 1278 -8 1863 29 152 112 479
152 595 143 422 365 859 613 1210 254 359 588 711 952 1002 732 586 1666 955
2592 1023 80 5 163 12 185 14 92 9 688 -4 820 -18z"/>
       <path d="M4740 9807 l0 -2097 2106 0 2107 0 -7 128 c-38 704 -177 1246 -460
1787 -266 506 -575 906 -965 1245 -602 522 -1264 847 -1991 974 -203 36 -312
46 -567 53 l-223 6 0 -2096z"/>
       <path d="M4240 11863 c-14 -2 -72 -10 -130 -18 -388 -55 -876 -249 -1253 -498
-332 -220 -594 -464 -835 -778 -291 -380 -502 -864 -582 -1336 -11 -65 -20
-119 -20 -120 0 -2 664 -3 1475 -3 l1475 0 0 1380 0 1380 -52 -1 c-29 -1 -64
-3 -78 -6z"/>
       <path d="M1420 8747 c0 -47 22 -194 41 -267 77 -312 310 -578 604 -691 186
-72 189 -72 633 -77 l402 -3 0 530 0 531 -840 0 -840 0 0 -23z"/>
       <path d="M3460 8234 l0 -537 53 6 c313 37 612 250 760 543 62 122 97 275 97
420 l0 104 -455 0 -455 0 0 -536z"/>
       <path d="M4757 7298 c28 -32 438 -499 493 -562 25 -28 169 -191 320 -361 151
-171 340 -384 420 -475 214 -245 419 -478 555 -631 66 -74 163 -184 216 -245
53 -60 154 -175 225 -255 71 -80 158 -180 194 -222 36 -41 68 -76 73 -76 4 -1
7 640 7 1424 l0 1425 -1262 0 -1261 0 20 -22z"/>
     </g>
   </svg>

