<?xml version="1.0" standalone="no"?>
<!DOCTYPE svg PUBLIC "-//W3C//DTD SVG 20010904//EN"
 "http://www.w3.org/TR/2001/REC-SVG-20010904/DTD/svg10.dtd">
<svg version="1.0" xmlns="http://www.w3.org/2000/svg"
 width="944.000000pt" height="944.000000pt" viewBox="0 0 944.000000 944.000000"
 preserveAspectRatio="xMidYMid meet">

<g transform="translate(0.000000,944.000000) scale(0.100000,-0.100000)"
fill="#000000" stroke="none">
<path d="M1355 8379 c-105 -11 -191 -53 -266 -130 -104 -105 -149 -236 -149
-434 0 -130 22 -206 87 -301 51 -74 78 -99 175 -162 63 -40 92 -53 150 -62 96
-17 225 -1 277 33 20 13 54 35 77 50 23 14 52 40 65 58 13 18 46 53 72 79 61
60 76 111 84 290 6 159 -4 230 -48 317 -32 64 -114 152 -183 199 -84 57 -196
78 -341 63z"/>
<path d="M3691 7929 c-634 -50 -1248 -345 -1660 -798 -388 -427 -613 -952
-661 -1543 -5 -64 -7 -124 -4 -133 6 -13 137 -15 1250 -15 l1244 0 -2 1248 -3
1247 -30 1 c-16 1 -77 -2 -134 -7z"/>
<path d="M4161 7931 c-13 -8 -14 -266 -12 -1897 1 -1039 4 -1891 7 -1894 3 -3
550 -6 1216 -7 665 0 1212 -3 1214 -6 3 -3 -4 -56 -15 -118 -33 -177 -26 -332
19 -454 19 -49 39 -76 114 -151 82 -82 97 -92 152 -108 134 -36 313 -30 411
16 23 11 77 57 121 102 61 63 85 97 101 142 51 134 56 293 15 454 -18 72 -23
105 -15 113 7 7 87 11 221 11 176 1 212 3 220 16 23 36 4 345 -36 589 -24 144
-109 484 -155 618 -45 132 -138 352 -206 488 -278 555 -757 1097 -1273 1440
-472 313 -959 505 -1520 599 -74 13 -508 56 -555 56 -5 0 -16 -4 -24 -9z"/>
<path d="M3227 5142 l-148 -3 -10 -26 c-6 -17 -9 -191 -7 -481 3 -436 4 -454
22 -468 28 -20 68 -18 168 10 316 87 546 339 594 651 18 117 19 304 2 310 -18
5 -445 11 -621 7z"/>
<path d="M1365 5121 c-7 -13 21 -205 41 -272 21 -70 92 -212 144 -289 130
-192 351 -340 587 -395 87 -20 522 -42 578 -29 l40 10 0 489 0 490 -692 3
c-431 1 -694 -1 -698 -7z"/>
<path d="M4150 3784 c0 -3 27 -36 59 -72 32 -37 96 -115 142 -173 46 -59 152
-187 234 -286 83 -99 195 -236 250 -304 55 -67 127 -155 160 -193 34 -39 72
-87 85 -106 12 -19 47 -60 75 -90 29 -30 68 -76 86 -101 19 -25 57 -73 84
-107 28 -33 111 -135 185 -228 74 -92 206 -253 294 -358 87 -105 170 -208 184
-229 45 -67 48 -56 54 181 7 248 -1 2052 -8 2064 -6 9 -1884 11 -1884 2z"/>
<path d="M2805 3561 c-137 -36 -294 -162 -358 -286 -43 -85 -63 -302 -37 -397
12 -42 116 -206 164 -257 42 -46 152 -97 239 -112 107 -18 273 -7 373 25 79
25 85 29 169 118 124 130 149 185 153 338 3 92 0 133 -17 205 -35 148 -97 217
-290 323 l-86 47 -140 2 c-77 1 -153 -2 -170 -6z"/>
<path d="M1643 1970 c-76 -16 -129 -46 -202 -115 -142 -134 -182 -294 -150
-597 26 -239 106 -356 290 -418 89 -31 242 -38 328 -16 93 24 180 73 216 123
108 149 126 206 132 419 6 177 -5 271 -39 338 -11 23 -64 84 -117 137 -117
117 -146 130 -306 135 -60 1 -129 -1 -152 -6z"/>
</g>
</svg>
