<?xml version="1.0" encoding="UTF-8"?>
<svg xmlns="http://www.w3.org/2000/svg" xmlns:xlink="http://www.w3.org/1999/xlink" width="24px" height="800px" viewBox="0 0 24 24" version="1.1">
<g id="surface1">
<path style="fill:none;stroke-width:1;stroke-linecap:round;stroke-linejoin:round;stroke:rgb(0%,0%,0%);stroke-opacity:1;stroke-miterlimit:4;" d="M 40.023438 10.078125 L 40.023438 5.5 C 39.703125 5.5 39.28125 5.5 38.367188 5.5 L 9.40625 5.5 C 8.492188 5.5 8.085938 5.5 7.75 5.5 L 7.75 10.078125 C 7.960938 10.078125 8.492188 10.085938 9.40625 10.085938 L 38.367188 10.078125 C 39.28125 10.078125 39.78125 10.078125 40.023438 10.078125 Z M 40.023438 10.078125 " transform="matrix(0.5,0,0,0.5,0,0)"/>
<path style="fill:none;stroke-width:1;stroke-linecap:round;stroke-linejoin:round;stroke:rgb(0%,0%,0%);stroke-opacity:1;stroke-miterlimit:4;" d="M 40.023438 18.351562 L 40.023438 13.765625 L 9.40625 13.765625 C 8.492188 13.765625 8.023438 13.765625 7.75 13.765625 L 7.75 18.351562 C 8.015625 18.351562 8.492188 18.351562 9.40625 18.351562 Z M 40.023438 18.351562 " transform="matrix(0.5,0,0,0.5,0,0)"/>
<path style="fill:none;stroke-width:1;stroke-linecap:round;stroke-linejoin:round;stroke:rgb(0%,0%,0%);stroke-opacity:1;stroke-miterlimit:4;" d="M 40.257812 42.5 L 40.257812 22.320312 C 40.257812 22.15625 39.28125 22.210938 38.367188 22.210938 L 9.398438 22.210938 C 8.484375 22.210938 7.75 22.15625 7.75 22.320312 L 7.75 42.203125 C 8.03125 42.046875 23.085938 33.992188 23.914062 33.609375 C 24.429688 33.90625 37.5625 40.945312 40.257812 42.5 Z M 40.257812 42.5 " transform="matrix(0.5,0,0,0.5,0,0)"/>
</g>
</svg>
