<?xml version="1.0" encoding="UTF-8"?>
<svg xmlns="http://www.w3.org/2000/svg" xmlns:xlink="http://www.w3.org/1999/xlink" width="24px" height="24px" viewBox="0 0 24 24" version="1.1">
<g id="surface1">
<path style=" stroke:none;fill-rule:nonzero;fill:rgb(0%,0%,0%);fill-opacity:1;" d="M 12 0.0234375 C 5.394531 0.0234375 0.0234375 5.394531 0.0234375 12 C 0.0234375 18.601562 5.394531 23.976562 12 23.976562 C 18.605469 23.976562 23.976562 18.601562 23.976562 12 C 23.976562 5.394531 18.605469 0.0234375 12 0.0234375 Z M 1.230469 12 C 1.230469 10.4375 1.566406 8.957031 2.164062 7.617188 L 7.300781 21.691406 C 3.707031 19.945312 1.230469 16.261719 1.230469 12 Z M 12 22.769531 C 10.941406 22.769531 9.921875 22.613281 8.957031 22.328125 L 12.1875 12.941406 L 15.5 22.007812 C 15.519531 22.0625 15.546875 22.113281 15.574219 22.15625 C 14.457031 22.550781 13.253906 22.769531 12 22.769531 Z M 13.484375 6.949219 C 14.132812 6.917969 14.714844 6.847656 14.714844 6.847656 C 15.296875 6.78125 15.226562 5.925781 14.648438 5.960938 C 14.648438 5.960938 12.902344 6.097656 11.777344 6.097656 C 10.71875 6.097656 8.941406 5.960938 8.941406 5.960938 C 8.359375 5.925781 8.292969 6.8125 8.875 6.847656 C 8.875 6.847656 9.421875 6.917969 10.003906 6.949219 L 11.679688 11.546875 L 9.324219 18.613281 L 5.402344 6.949219 C 6.050781 6.917969 6.632812 6.847656 6.632812 6.847656 C 7.214844 6.78125 7.144531 5.925781 6.566406 5.960938 C 6.566406 5.960938 4.820312 6.097656 3.695312 6.097656 C 3.492188 6.097656 3.257812 6.09375 3.003906 6.085938 C 4.929688 3.160156 8.238281 1.230469 12 1.230469 C 14.804688 1.230469 17.355469 2.304688 19.269531 4.058594 C 19.226562 4.054688 19.179688 4.050781 19.132812 4.050781 C 18.074219 4.050781 17.324219 4.972656 17.324219 5.960938 C 17.324219 6.847656 17.835938 7.601562 18.382812 8.488281 C 18.789062 9.203125 19.269531 10.125 19.269531 11.457031 C 19.269531 12.378906 18.914062 13.449219 18.449219 14.9375 L 17.375 18.527344 Z M 17.414062 21.308594 L 20.703125 11.796875 C 21.316406 10.261719 21.519531 9.03125 21.519531 7.941406 C 21.519531 7.542969 21.496094 7.175781 21.449219 6.832031 C 22.289062 8.367188 22.769531 10.128906 22.769531 12 C 22.769531 15.972656 20.613281 19.441406 17.414062 21.308594 Z M 17.414062 21.308594 "/>
</g>
</svg>
