<?xml version="1.0" encoding="UTF-8"?>
<svg xmlns="http://www.w3.org/2000/svg" xmlns:xlink="http://www.w3.org/1999/xlink" width="24px" height="2px" viewBox="0 0 2 2" version="1.1">
<g id="surface1">
<path style="fill:none;stroke-width:1;stroke-linecap:round;stroke-linejoin:round;stroke:rgb(0%,0%,0%);stroke-opacity:1;stroke-miterlimit:4;" d="M 18.84375 10.875 L 30.28125 10.875 " transform="matrix(0.0416667,0,0,0.0416667,0,0)"/>
<path style="fill:none;stroke-width:1;stroke-linecap:round;stroke-linejoin:round;stroke:rgb(0%,0%,0%);stroke-opacity:1;stroke-miterlimit:4;" d="M 5.53125 10.875 L 15.28125 10.875 " transform="matrix(0.0416667,0,0,0.0416667,0,0)"/>
<path style="fill:none;stroke-width:1;stroke-linecap:round;stroke-linejoin:round;stroke:rgb(0%,0%,0%);stroke-opacity:1;stroke-miterlimit:4;" d="M 21.28125 10.875 L 32.625 41.53125 " transform="matrix(0.0416667,0,0,0.0416667,0,0)"/>
<path style="fill:none;stroke-width:1;stroke-linecap:round;stroke-linejoin:round;stroke:rgb(0%,0%,0%);stroke-opacity:1;stroke-miterlimit:4;" d="M 27.09375 10.875 L 35.53125 33.65625 " transform="matrix(0.0416667,0,0,0.0416667,0,0)"/>
<path style="fill:none;stroke-width:1;stroke-linecap:round;stroke-linejoin:round;stroke:rgb(0%,0%,0%);stroke-opacity:1;stroke-miterlimit:4;" d="M 6.5625 10.875 L 17.8125 41.34375 " transform="matrix(0.0416667,0,0,0.0416667,0,0)"/>
<path style="fill:none;stroke-width:1;stroke-linecap:round;stroke-linejoin:round;stroke:rgb(0%,0%,0%);stroke-opacity:1;stroke-miterlimit:4;" d="M 12.375 10.875 L 20.71875 33.5625 " transform="matrix(0.0416667,0,0,0.0416667,0,0)"/>
<path style="fill:none;stroke-width:1;stroke-linecap:round;stroke-linejoin:round;stroke:rgb(0%,0%,0%);stroke-opacity:1;stroke-miterlimit:4;" d="M 25.21875 21.46875 L 17.8125 41.34375 " transform="matrix(0.0416667,0,0,0.0416667,0,0)"/>
<path style="fill:none;stroke-width:1;stroke-linecap:round;stroke-linejoin:round;stroke:rgb(0%,0%,0%);stroke-opacity:1;stroke-miterlimit:4;" d="M 40.3125 20.71875 L 32.625 41.53125 " transform="matrix(0.0416667,0,0,0.0416667,0,0)"/>
<path style="fill:none;stroke-width:1;stroke-linecap:round;stroke-linejoin:round;stroke:rgb(0%,0%,0%);stroke-opacity:1;stroke-miterlimit:4;" d="M 40.3125 20.71875 C 40.78125 19.21875 42.46875 16.96875 42.46875 13.6875 C 42.46875 8.53125 40.875 6.46875 38.15625 6.46875 C 35.90625 6.46875 35.15625 8.625 35.15625 10.40625 C 35.15625 15.65625 40.3125 16.40625 40.3125 20.71875 Z M 40.3125 20.71875 " transform="matrix(0.0416667,0,0,0.0416667,0,0)"/>
</g>
</svg>
