<?xml version="1.0" encoding="UTF-8"?>
<svg xmlns="http://www.w3.org/2000/svg" xmlns:xlink="http://www.w3.org/1999/xlink" width="24px" height="800px" viewBox="0 0 24 24" version="1.1">
<g id="surface1">
<path style=" stroke:none;fill-rule:nonzero;fill:rgb(0%,0%,0%);fill-opacity:1;" d="M 12 0.753906 C 5.789062 0.753906 0.753906 5.789062 0.753906 12 C 0.753906 18.210938 5.789062 23.246094 12 23.246094 C 18.210938 23.246094 23.246094 18.210938 23.246094 12 C 23.238281 5.792969 18.207031 0.761719 12 0.753906 Z M 1.886719 12 C 1.886719 11.996094 1.886719 11.996094 1.886719 11.992188 C 1.886719 10.503906 2.210938 9.09375 2.789062 7.824219 L 2.765625 7.886719 L 7.585938 21.101562 C 4.1875 19.421875 1.890625 15.980469 1.886719 12 Z M 12 22.105469 C 11.996094 22.105469 11.996094 22.105469 11.992188 22.105469 C 10.976562 22.105469 9.996094 21.957031 9.070312 21.679688 L 9.144531 21.699219 L 12.179688 12.882812 L 15.285156 21.398438 C 15.3125 21.453125 15.335938 21.5 15.363281 21.542969 L 15.359375 21.539062 C 14.359375 21.898438 13.210938 22.109375 12.007812 22.109375 C 12.007812 22.109375 12.003906 22.109375 12 22.109375 Z M 13.394531 7.246094 C 14 7.21875 14.550781 7.148438 14.550781 7.148438 C 14.761719 7.125 14.929688 6.945312 14.929688 6.730469 C 14.929688 6.496094 14.738281 6.308594 14.503906 6.308594 C 14.5 6.308594 14.492188 6.308594 14.484375 6.308594 C 14.484375 6.308594 12.839844 6.433594 11.785156 6.433594 C 10.789062 6.433594 9.117188 6.292969 9.117188 6.292969 C 9.105469 6.292969 9.09375 6.292969 9.082031 6.292969 C 8.851562 6.292969 8.664062 6.476562 8.664062 6.707031 C 8.664062 6.925781 8.832031 7.105469 9.042969 7.125 L 9.046875 7.125 C 9.046875 7.125 9.550781 7.179688 10.101562 7.207031 L 11.675781 11.523438 L 9.453125 18.160156 L 5.769531 7.222656 C 6.378906 7.195312 6.925781 7.128906 6.925781 7.128906 C 7.140625 7.105469 7.308594 6.925781 7.308594 6.707031 C 7.308594 6.476562 7.121094 6.289062 6.886719 6.289062 C 6.878906 6.289062 6.871094 6.289062 6.867188 6.289062 C 6.867188 6.289062 5.230469 6.417969 4.171875 6.417969 C 3.984375 6.417969 3.761719 6.410156 3.527344 6.402344 C 5.390625 3.671875 8.488281 1.902344 12 1.894531 C 12.003906 1.894531 12.011719 1.894531 12.015625 1.894531 C 14.648438 1.894531 17.042969 2.902344 18.835938 4.554688 L 18.828125 4.546875 C 18.785156 4.546875 18.742188 4.539062 18.695312 4.539062 C 17.753906 4.570312 16.996094 5.339844 16.996094 6.289062 C 16.996094 6.304688 16.996094 6.320312 17 6.335938 C 17.113281 7.242188 17.46875 8.054688 18 8.714844 L 17.992188 8.707031 C 18.503906 9.496094 18.8125 10.460938 18.824219 11.492188 L 18.824219 11.496094 C 18.710938 12.699219 18.4375 13.804688 18.027344 14.839844 L 18.054688 14.757812 L 17.050781 18.117188 L 13.394531 7.234375 Z M 20.875 7.148438 C 21.652344 8.550781 22.109375 10.21875 22.109375 11.996094 C 22.109375 15.707031 20.109375 18.953125 17.128906 20.714844 L 17.082031 20.738281 L 20.171875 11.808594 C 20.640625 10.742188 20.921875 9.5 20.941406 8.195312 L 20.941406 8.1875 C 20.941406 8.183594 20.941406 8.175781 20.941406 8.167969 C 20.941406 7.808594 20.917969 7.453125 20.871094 7.109375 Z M 20.875 7.148438 "/>
</g>
</svg>
