<?xml version="1.0" encoding="UTF-8"?>
<svg xmlns="http://www.w3.org/2000/svg" xmlns:xlink="http://www.w3.org/1999/xlink" width="24px" height="24px" viewBox="0 0 24 24" version="1.1">
<g id="surface1">
<path style=" stroke:none;fill-rule:nonzero;fill:rgb(0%,0%,0%);fill-opacity:1;" d="M 20.527344 4.242188 C 19.917969 3.632812 19.117188 3.449219 18.265625 3.726562 C 17.863281 3.855469 17.375 4.304688 17.1875 5.019531 C 17.015625 5.671875 17.050781 6.710938 18.199219 7.96875 C 19.875 9.796875 19.339844 12.460938 19.335938 12.484375 C 19.335938 12.488281 19.335938 12.492188 19.332031 12.496094 L 18.054688 15.988281 L 14.648438 6.242188 L 15.855469 6.242188 C 16.113281 6.242188 16.324219 6.03125 16.324219 5.777344 C 16.324219 5.515625 16.113281 5.308594 15.855469 5.308594 L 9.972656 5.308594 C 9.710938 5.308594 9.503906 5.515625 9.503906 5.777344 C 9.503906 6.035156 9.714844 6.242188 9.972656 6.242188 L 10.773438 6.242188 L 12.632812 11.429688 C 12.609375 11.460938 12.589844 11.496094 12.574219 11.535156 L 10.949219 15.984375 L 7.546875 6.246094 L 8.75 6.246094 C 9.011719 6.246094 9.222656 6.035156 9.222656 5.777344 C 9.222656 5.515625 9.011719 5.308594 8.75 5.308594 L 2.871094 5.308594 C 2.609375 5.308594 2.398438 5.515625 2.398438 5.777344 C 2.398438 6.035156 2.609375 6.246094 2.871094 6.246094 L 3.671875 6.246094 L 8.632812 20.089844 C 8.699219 20.273438 8.875 20.398438 9.074219 20.398438 L 10.007812 20.398438 C 10.207031 20.398438 10.382812 20.277344 10.449219 20.09375 L 11.382812 17.542969 L 13.117188 12.789062 L 15.734375 20.089844 C 15.800781 20.273438 15.980469 20.398438 16.179688 20.398438 L 17.109375 20.398438 C 17.308594 20.398438 17.484375 20.277344 17.550781 20.09375 L 21.101562 10.40625 C 21.101562 10.398438 21.105469 10.394531 21.105469 10.390625 C 21.9375 7.894531 21.707031 5.421875 20.527344 4.242188 Z M 9.679688 19.460938 L 9.40625 19.460938 L 4.667969 6.246094 L 6.550781 6.246094 L 10.441406 17.375 Z M 16.78125 19.460938 L 16.507812 19.460938 L 11.769531 6.246094 L 13.65625 6.246094 L 17.546875 17.378906 Z M 20.230469 10.042969 C 20.054688 9.160156 19.667969 8.1875 18.894531 7.335938 C 18.027344 6.394531 17.984375 5.683594 18.097656 5.257812 C 18.207031 4.84375 18.472656 4.644531 18.558594 4.613281 C 18.71875 4.5625 18.871094 4.535156 19.019531 4.535156 C 19.335938 4.535156 19.617188 4.660156 19.863281 4.902344 C 20.632812 5.671875 21 7.683594 20.230469 10.042969 Z M 20.230469 10.042969 "/>
</g>
</svg>
